<svg width="22" height="22" viewBox="0 0 22 22" fill="none" xmlns="http://www.w3.org/2000/svg">
<g id="logos:whatsapp-icon" clip-path="url(#clip0_763_2750)">
<path id="Vector" d="M0.947773 11.1243C0.947281 12.8887 1.41191 14.6115 2.29538 16.13L0.863281 21.3183L6.21434 19.9261C7.69438 20.7256 9.35265 21.1445 11.0378 21.1446H11.0422C16.6052 21.1446 21.1335 16.653 21.1359 11.1322C21.137 8.45693 20.088 5.94133 18.1821 4.04872C16.2765 2.15628 13.7421 1.11353 11.0418 1.1123C5.4782 1.1123 0.950152 5.6037 0.947855 11.1243" fill="url(#paint0_linear_763_2750)"/>
<path id="Vector_2" d="M0.587773 11.1211C0.587199 12.949 1.06848 14.7334 1.98345 16.3063L0.5 21.6806L6.04293 20.2385C7.57019 21.0647 9.28973 21.5004 11.0395 21.501H11.044C16.8065 21.501 21.4975 16.8478 21.5 11.1294C21.501 8.35802 20.4142 5.75199 18.4402 3.79158C16.466 1.83142 13.841 0.75114 11.044 0.75C5.28045 0.75 0.59007 5.40256 0.587773 11.1211ZM3.88879 16.0354L3.68183 15.7094C2.8118 14.3368 2.35259 12.7505 2.35325 11.1217C2.35505 6.36864 6.25351 2.50163 11.0473 2.50163C13.3687 2.5026 15.5504 3.40056 17.1914 5.02977C18.8323 6.65914 19.7352 8.82507 19.7346 11.1287C19.7325 15.8818 15.8339 19.7493 11.044 19.7493H11.0405C9.48086 19.7485 7.95123 19.3329 6.61723 18.5475L6.29977 18.3607L3.01048 19.2164L3.88879 16.0354Z" fill="url(#paint1_linear_763_2750)"/>
<path id="Vector_3" d="M8.43012 6.78501C8.23439 6.35337 8.02841 6.34466 7.84228 6.33709C7.68987 6.33057 7.51563 6.33106 7.34156 6.33106C7.16733 6.33106 6.88424 6.3961 6.64495 6.65534C6.40542 6.91483 5.73047 7.5419 5.73047 8.81728C5.73047 10.0927 6.66669 11.3253 6.7972 11.4984C6.92788 11.6712 8.6046 14.3723 11.2601 15.4114C13.4671 16.2749 13.9162 16.1031 14.3952 16.0598C14.8742 16.0167 15.941 15.4329 16.1586 14.8276C16.3764 14.2223 16.3764 13.7035 16.3111 13.5951C16.2458 13.4871 16.0716 13.4222 15.8103 13.2926C15.549 13.1631 14.2645 12.5358 14.0251 12.4493C13.7855 12.3629 13.6114 12.3197 13.4371 12.5793C13.2629 12.8385 12.7626 13.4222 12.6101 13.5951C12.4578 13.7684 12.3053 13.79 12.0441 13.6603C11.7827 13.5302 10.9413 13.2568 9.94302 12.3738C9.16635 11.6866 8.642 10.8381 8.48959 10.5785C8.33718 10.3194 8.47327 10.1789 8.60427 10.0497C8.72166 9.93354 8.86562 9.74698 8.99638 9.59567C9.12664 9.44427 9.17012 9.33626 9.25724 9.16338C9.34444 8.99033 9.3008 8.83894 9.23558 8.70927C9.17012 8.57961 8.66243 7.29755 8.43012 6.78501Z" fill="white"/>
</g>
<defs>
<linearGradient id="paint0_linear_763_2750" x1="1014.49" y1="2021.71" x2="1014.49" y2="1.1123" gradientUnits="userSpaceOnUse">
<stop stop-color="#1FAF38"/>
<stop offset="1" stop-color="#60D669"/>
</linearGradient>
<linearGradient id="paint1_linear_763_2750" x1="1050.5" y1="2093.81" x2="1050.5" y2="0.75" gradientUnits="userSpaceOnUse">
<stop stop-color="#F9F9F9"/>
<stop offset="1" stop-color="white"/>
</linearGradient>
<clipPath id="clip0_763_2750">
<rect width="21" height="21" fill="white" transform="translate(0.5 0.75)"/>
</clipPath>
</defs>
</svg>
