<svg width="26" height="19" viewBox="0 0 26 19" fill="none" xmlns="http://www.w3.org/2000/svg">
<path id="Vector" d="M7.08958 18.5444C6.14743 18.5444 5.3466 18.2146 4.68709 17.5551C4.02759 16.8956 3.69783 16.0948 3.69783 15.1526H2.25634C1.93601 15.1526 1.66731 15.0441 1.45024 14.827C1.23316 14.61 1.12501 14.3416 1.12576 14.0221C1.12651 13.7025 1.23505 13.4342 1.45137 13.2171C1.66768 13 1.93601 12.8915 2.25634 12.8915H4.57403C4.89437 12.5335 5.27123 12.2557 5.70462 12.0582C6.13801 11.8608 6.59966 11.7617 7.08958 11.7609C7.5795 11.7601 8.04115 11.8593 8.47454 12.0582C8.90793 12.2572 9.28479 12.535 9.60512 12.8915H14.3253L16.6995 2.71624H5.67635C5.35602 2.71624 5.0877 2.60771 4.87138 2.39063C4.65506 2.17356 4.54652 1.90524 4.54577 1.58566C4.54502 1.26608 4.65355 0.997758 4.87138 0.780686C5.0892 0.563614 5.35753 0.455078 5.67635 0.455078H18.1128C18.4896 0.455078 18.7911 0.596401 19.0172 0.879046C19.2433 1.16169 19.3093 1.48202 19.2151 1.84004L18.4802 4.97741H20.6566C21.0146 4.97741 21.3538 5.05768 21.6741 5.21822C21.9944 5.37876 22.2582 5.59998 22.4655 5.88187L24.5853 8.68006C24.7926 8.94386 24.9245 9.23141 24.981 9.5427C25.0376 9.85398 25.0376 10.1694 24.981 10.489L24.2179 14.2482C24.1614 14.512 24.0295 14.7287 23.8222 14.8983C23.6149 15.0679 23.3794 15.1526 23.1156 15.1526H21.7871C21.7871 16.0948 21.4574 16.8956 20.7979 17.5551C20.1384 18.2146 19.3376 18.5444 18.3954 18.5444C17.4532 18.5444 16.6524 18.2146 15.9929 17.5551C15.3334 16.8956 15.0037 16.0948 15.0037 15.1526H10.4813C10.4813 16.0948 10.1516 16.8956 9.49207 17.5551C8.83256 18.2146 8.03173 18.5444 7.08958 18.5444ZM17.18 10.6303H22.6351L22.7481 10.0368L20.6566 7.23857H17.9714L17.18 10.6303ZM14.3818 12.6936L14.5661 11.874C14.6882 11.3275 14.8435 10.6586 15.0319 9.86717C15.0884 9.62221 15.145 9.3961 15.2015 9.18882C15.258 8.98155 15.3051 8.77428 15.3428 8.567L15.5271 7.74733C15.6492 7.20088 15.8045 6.53196 15.9929 5.74055C16.1813 4.94914 16.337 4.28021 16.4598 3.73377L16.643 2.91409L16.6995 2.71624L14.3253 12.8915L14.3818 12.6936ZM1.15402 10.9978C0.833692 10.9978 0.565367 10.8896 0.349049 10.6733C0.132731 10.457 0.0241951 10.1883 0.0234414 9.86717C0.0226877 9.54609 0.131224 9.27776 0.349049 9.0622C0.566874 8.84663 0.835199 8.7381 1.15402 8.73659H5.11106C5.43139 8.73659 5.70009 8.84513 5.91716 9.0622C6.13424 9.27927 6.2424 9.5476 6.24164 9.86717C6.24089 10.1868 6.13235 10.4555 5.91603 10.6733C5.69972 10.8911 5.43139 10.9993 5.11106 10.9978H1.15402ZM3.41519 6.87113C3.09486 6.87113 2.82653 6.7626 2.61021 6.54552C2.39389 6.32845 2.28536 6.06013 2.28461 5.74055C2.28385 5.42097 2.39239 5.15265 2.61021 4.93557C2.82804 4.7185 3.09636 4.60997 3.41519 4.60997H8.50281C8.82314 4.60997 9.09184 4.7185 9.30891 4.93557C9.52598 5.15265 9.63414 5.42097 9.63339 5.74055C9.63264 6.06013 9.5241 6.32883 9.30778 6.54665C9.09146 6.76448 8.82314 6.87264 8.50281 6.87113H3.41519ZM7.08958 16.2832C7.40991 16.2832 7.67861 16.1747 7.89568 15.9576C8.11275 15.7405 8.22091 15.4722 8.22016 15.1526C8.21941 14.8331 8.11087 14.5647 7.89455 14.3477C7.67824 14.1306 7.40991 14.0221 7.08958 14.0221C6.76925 14.0221 6.50092 14.1306 6.2846 14.3477C6.06829 14.5647 5.95975 14.8331 5.959 15.1526C5.95824 15.4722 6.06678 15.7409 6.2846 15.9587C6.50243 16.1766 6.77075 16.2847 7.08958 16.2832ZM18.3954 16.2832C18.7157 16.2832 18.9844 16.1747 19.2015 15.9576C19.4186 15.7405 19.5267 15.4722 19.526 15.1526C19.5252 14.8331 19.4167 14.5647 19.2004 14.3477C18.9841 14.1306 18.7157 14.0221 18.3954 14.0221C18.0751 14.0221 17.8067 14.1306 17.5904 14.3477C17.3741 14.5647 17.2656 14.8331 17.2648 15.1526C17.2641 15.4722 17.3726 15.7409 17.5904 15.9587C17.8083 16.1766 18.0766 16.2847 18.3954 16.2832Z" fill="white"/>
</svg>
