<svg width="22" height="15" viewBox="0 0 22 15" fill="none" xmlns="http://www.w3.org/2000/svg">
<g id="logos:youtube-icon" clip-path="url(#clip0_763_2745)">
<path id="Vector" d="M21.0362 2.43361C20.9158 2.01155 20.6808 1.62678 20.3547 1.3176C20.0287 1.00842 19.6228 0.785625 19.1777 0.6714C17.5481 0.25 10.9894 0.25 10.9894 0.25C10.9894 0.25 4.4303 0.262756 2.80066 0.684156C2.35552 0.798388 1.94971 1.02119 1.62363 1.33039C1.29756 1.63958 1.0626 2.02437 0.942164 2.44644C0.449238 5.19184 0.258024 9.3752 0.955699 12.0108C1.07615 12.4328 1.31111 12.8176 1.63719 13.1268C1.96326 13.436 2.36907 13.6588 2.8142 13.773C4.44383 14.1944 11.0027 14.1944 11.0027 14.1944C11.0027 14.1944 17.5615 14.1944 19.1911 13.773C19.6362 13.6588 20.0421 13.436 20.3681 13.1268C20.6942 12.8176 20.9292 12.4328 21.0497 12.0108C21.5696 9.26149 21.7298 5.0807 21.0362 2.43361Z" fill="#FF0000"/>
<path id="Vector_2" d="M8.90234 10.2105L14.3433 7.22244L8.90234 4.23438V10.2105Z" fill="white"/>
</g>
<defs>
<clipPath id="clip0_763_2745">
<rect width="21" height="14" fill="white" transform="translate(0.5 0.25)"/>
</clipPath>
</defs>
</svg>
