<svg width="26" height="27" viewBox="0 0 26 27" fill="none" xmlns="http://www.w3.org/2000/svg">
<path id="Vector" d="M12.3157 0.695312C11.3462 0.712221 10.65 0.875673 10.188 1.16876L3.85689 4.10525L0.336721 8.25298C-0.405051 9.24496 0.121998 11.1613 2.43841 9.93258L4.97605 7.03555C8.19691 4.62942 14.7688 5.73357 11.652 10.5638C10.1229 13.3594 10.8387 14.7234 12.8102 15.2983L13.7081 12.6831C15.2633 9.65077 18.1653 9.10405 18.0482 6.65792L25.0234 7.09191L24.9584 0.77422L12.3157 0.695312ZM8.79553 6.52265C7.66335 6.50574 6.55069 6.91155 5.74385 7.49772L3.1997 10.3948C3.89593 10.8738 4.59866 10.6146 5.29489 10.034C6.11474 10.3948 6.7524 9.83677 7.27295 8.72079C7.48767 7.95989 7.8065 7.42445 8.79553 6.52265ZM3.61614 11.9335C3.59011 11.9335 3.55758 11.9335 3.53155 11.9391C3.31682 11.9785 3.06306 12.1758 2.89389 12.6267C2.7182 13.0776 2.67916 13.7202 2.83532 14.4078C2.99149 15.0898 3.31683 15.6703 3.6812 16.031C4.03257 16.3861 4.35791 16.4876 4.57263 16.4481C4.79386 16.4143 5.04112 16.2114 5.2103 15.7661C5.38598 15.3152 5.43153 14.667 5.27536 13.9851C5.1127 13.2974 4.78736 12.7169 4.42948 12.3618C4.11716 12.0462 3.83086 11.9335 3.61614 11.9335ZM8.99074 17.953C8.4767 17.9586 7.83253 18.0995 7.20137 18.3644C6.47912 18.6744 5.91303 19.1028 5.60721 19.4973C5.30139 19.8862 5.27536 20.1793 5.37297 20.354C5.47057 20.5231 5.75687 20.6866 6.30344 20.7091C6.85001 20.7373 7.58527 20.6077 8.30752 20.2977C9.02978 19.9877 9.59586 19.565 9.90168 19.1704C10.2075 18.7815 10.2335 18.4828 10.1359 18.3137C10.0383 18.139 9.75203 17.9812 9.20546 17.9586C9.13388 17.953 9.06882 17.953 8.99074 17.953ZM2.64012 23.3413C2.3343 23.3469 2.05451 23.3863 1.80725 23.4483C1.25418 23.5893 0.935345 23.8429 0.831236 24.1416C0.720621 24.446 0.831237 24.8067 1.20212 25.1956C1.57952 25.5789 2.21067 25.9452 2.99149 26.1481C3.76579 26.351 4.52058 26.3454 5.08016 26.1988C5.63974 26.0579 5.95858 25.8043 6.06269 25.5056C6.16679 25.2012 6.06269 24.8405 5.68529 24.4516C5.31441 24.0683 4.68325 23.702 3.90244 23.4991C3.45998 23.3863 3.03053 23.3356 2.64012 23.3413Z" fill="white"/>
</svg>
