<svg width="26" height="25" viewBox="0 0 26 25" fill="none" xmlns="http://www.w3.org/2000/svg">
<g id="mdi:account-payment" clip-path="url(#clip0_734_2617)">
<path id="Vector" d="M7.3151 12.5003C9.60677 12.5003 11.4818 10.6253 11.4818 8.33366C11.4818 6.04199 9.60677 4.16699 7.3151 4.16699C5.02344 4.16699 3.14844 6.04199 3.14844 8.33366C3.14844 10.6253 5.02344 12.5003 7.3151 12.5003ZM11.4818 20.8337V15.3128C10.3359 14.8962 8.8776 14.5837 7.3151 14.5837C3.2526 14.5837 0.0234375 16.4587 0.0234375 18.7503V20.8337H11.4818ZM22.9401 4.16699H15.6484C14.5026 4.16699 13.5651 5.10449 13.5651 6.25033V18.7503C13.5651 19.8962 14.5026 20.8337 15.6484 20.8337H22.9401C24.0859 20.8337 25.0234 19.8962 25.0234 18.7503V6.25033C25.0234 5.10449 24.0859 4.16699 22.9401 4.16699ZM18.7734 18.7503H16.6901V6.25033H18.7734V18.7503Z" fill="white"/>
</g>
<defs>
<clipPath id="clip0_734_2617">
<rect width="25" height="25" fill="white" transform="translate(0.0234375)"/>
</clipPath>
</defs>
</svg>
