<svg width="26" height="25" viewBox="0 0 26 25" fill="none" xmlns="http://www.w3.org/2000/svg">
<g id="carbon:data-collection">
<path id="Vector" d="M12.5234 14.0625C13.3864 14.0625 14.0859 13.3629 14.0859 12.5C14.0859 11.6371 13.3864 10.9375 12.5234 10.9375C11.6605 10.9375 10.9609 11.6371 10.9609 12.5C10.9609 13.3629 11.6605 14.0625 12.5234 14.0625Z" fill="white"/>
<path id="Vector_2" d="M23.4609 13.2812V11.7188H18.6406L20.6562 9.69531L19.5547 8.59375L15.6484 12.5L19.5547 16.4062L20.6562 15.3047L18.6406 13.2812H23.4609ZM11.7422 18.6172V23.4375H13.3047V18.6172L15.3281 20.6328L16.4297 19.5312L12.5234 15.625L8.61719 19.5312L9.71875 20.6328L11.7422 18.6172ZM5.49219 8.59375L4.39062 9.69531L6.40625 11.7188H1.58594V13.2812H6.40625L4.39062 15.3047L5.49219 16.4062L9.39844 12.5L5.49219 8.59375ZM13.3047 6.38281V1.5625H11.7422V6.38281L9.71875 4.36719L8.61719 5.46875L12.5234 9.375L16.4297 5.46875L15.3281 4.36719L13.3047 6.38281Z" fill="white"/>
</g>
</svg>
