<svg width="26" height="25" viewBox="0 0 26 25" fill="none" xmlns="http://www.w3.org/2000/svg">
<g id="arcticons:malaysia-prayer-time-mpt" clip-path="url(#clip0_734_2572)">
<path id="Vector" d="M18.4909 10.6076V11.2676M17.5987 10.6076V11.2676M16.7065 10.6076V11.2676M15.8138 10.6076V11.2676M14.9227 10.6076V11.2676M14.0299 10.6076V11.2676M13.1378 10.6076V11.2676M15.7773 5.7141C15.2081 6.16585 14.9362 6.54585 14.0034 7.06488C11.7237 8.33402 12.2523 9.82681 12.2612 11.2676M15.7773 5.7141C16.3747 6.16585 16.6466 6.54585 17.5789 7.06439C19.8591 8.33353 19.3305 9.82681 19.3216 11.2676M15.7773 5.7141L15.7768 4.94569M16.6258 3.98579C16.6259 4.14169 16.5773 4.29411 16.4862 4.42378C16.3952 4.55345 16.2656 4.65456 16.1141 4.7143C15.9625 4.77405 15.7957 4.78976 15.6347 4.75944C15.4738 4.72913 15.3259 4.65415 15.2098 4.54398C15.0937 4.43382 15.0146 4.29342 14.9824 4.14054C14.9503 3.98767 14.9667 3.82918 15.0294 3.68511C15.0921 3.54105 15.1983 3.41789 15.3347 3.3312C15.4711 3.24451 15.6315 3.19818 15.7956 3.19809H15.7966M12.3154 15.8019V12.1474H19.3169V16.937M14.4596 17.5144V15.7747C14.4592 15.616 14.4918 15.4589 14.5555 15.3122C14.6193 15.1656 14.7128 15.0323 14.8309 14.9201C14.949 14.808 15.0893 14.719 15.2437 14.6585C15.398 14.598 15.5635 14.567 15.7305 14.5674H15.8862C16.0532 14.5671 16.2186 14.5981 16.3729 14.6586C16.5273 14.7192 16.6675 14.8081 16.7856 14.9203C16.9037 15.0325 16.9972 15.1657 17.061 15.3123C17.1247 15.4589 17.1574 15.6161 17.157 15.7747V17.55M23.7201 12.3062C23.1698 13.8627 22.1188 15.2157 20.7156 16.1743C19.3123 17.1328 17.6276 17.6485 15.8992 17.6485M12.1977 16.8172C9.50026 15.5283 7.6487 12.8747 7.6487 9.81048C7.64863 7.93286 8.35812 6.1176 9.64806 4.69501C10.938 3.27242 12.7227 2.33704 14.6773 2.05908M23.7076 12.3023C23.7089 12.3695 23.7096 12.437 23.7096 12.5046C23.7096 18.3768 18.6992 23.1377 12.5174 23.1377C6.3362 23.1377 1.32474 18.3778 1.32422 12.5046C1.32422 6.63243 6.33568 1.87204 12.5174 1.87254C13.243 1.87254 13.9669 1.93934 14.6789 2.07243M17.2461 1.35449L17.5888 2.01405L18.3544 2.11993L17.8008 2.63353L17.9315 3.3584L17.2461 3.016L16.5607 3.3584L16.6919 2.63353L16.1378 2.11993L16.9034 2.01405L17.2461 1.35449Z" stroke="white" stroke-width="2" stroke-linecap="round" stroke-linejoin="round"/>
</g>
<defs>
<clipPath id="clip0_734_2572">
<rect width="25" height="23.75" fill="white" transform="translate(0.0234375 0.625)"/>
</clipPath>
</defs>
</svg>
