<svg width="26" height="25" viewBox="0 0 26 25" fill="none" xmlns="http://www.w3.org/2000/svg">
<g id="mdi:donation">
<path id="Vector" d="M16.6885 12.4998C19.5635 12.4998 21.8969 10.3331 21.8969 7.66346C21.8969 4.99382 19.5635 2.82715 16.6885 2.82715C13.8135 2.82715 11.4802 4.99382 11.4802 7.66346C11.4802 10.3331 13.8135 12.4998 16.6885 12.4998ZM22.3656 17.9164C21.9594 17.5295 21.449 17.3361 20.8552 17.3361H13.5635L11.3969 16.63L11.7406 15.7207L13.5635 16.3688H16.4802C16.8448 16.3688 17.1365 16.2334 17.376 16.0109C17.6156 15.7885 17.7302 15.5176 17.7302 15.2178C17.7302 14.6955 17.4594 14.3376 16.9177 14.1344L9.34479 11.5325H7.31354V20.2379L14.6052 22.1724L22.9698 19.2706C22.9802 18.758 22.7719 18.3033 22.3656 17.9164ZM5.23021 11.5325H1.04688V22.1724H5.23021V11.5325Z" fill="white"/>
</g>
</svg>
