<svg width="26" height="27" viewBox="0 0 26 27" fill="none" xmlns="http://www.w3.org/2000/svg">
<g id="solar:calculator-minimalistic-bold">
<path id="Vector" fill-rule="evenodd" clip-rule="evenodd" d="M12.5221 24.3251C7.61172 24.3251 5.15651 24.3251 3.63047 22.7392C2.10547 21.1555 2.10547 18.603 2.10547 13.5C2.10547 8.39699 2.10547 5.8455 3.63047 4.25961C5.15755 2.6748 7.61172 2.6748 12.5221 2.6748C17.4326 2.6748 19.8878 2.6748 21.4128 4.25961C22.9388 5.84658 22.9388 8.39699 22.9388 13.5C22.9388 18.603 22.9388 21.1544 21.4128 22.7392C19.8888 24.3251 17.4326 24.3251 12.5221 24.3251ZM9.13672 7.54613C9.13672 7.3308 9.05441 7.1243 8.9079 6.97204C8.76138 6.81978 8.56267 6.73424 8.35547 6.73424C8.14827 6.73424 7.94955 6.81978 7.80304 6.97204C7.65653 7.1243 7.57422 7.3308 7.57422 7.54613V8.89927H6.27214C6.06494 8.89927 5.86622 8.98481 5.71971 9.13707C5.5732 9.28933 5.49089 9.49584 5.49089 9.71116C5.49089 9.92649 5.5732 10.133 5.71971 10.2853C5.86622 10.4375 6.06494 10.523 6.27214 10.523H7.57422V11.8762C7.57422 12.0915 7.65653 12.298 7.80304 12.4503C7.94955 12.6025 8.14827 12.6881 8.35547 12.6881C8.56267 12.6881 8.76138 12.6025 8.9079 12.4503C9.05441 12.298 9.13672 12.0915 9.13672 11.8762V10.523H10.4388C10.646 10.523 10.8447 10.4375 10.9912 10.2853C11.1377 10.133 11.2201 9.92649 11.2201 9.71116C11.2201 9.49584 11.1377 9.28933 10.9912 9.13707C10.8447 8.98481 10.646 8.89927 10.4388 8.89927H9.13672V7.54613ZM14.6055 8.89927C14.3983 8.89927 14.1996 8.98481 14.053 9.13707C13.9065 9.28933 13.8242 9.49584 13.8242 9.71116C13.8242 9.92649 13.9065 10.133 14.053 10.2853C14.1996 10.4375 14.3983 10.523 14.6055 10.523H18.7721C18.9793 10.523 19.1781 10.4375 19.3246 10.2853C19.4711 10.133 19.5534 9.92649 19.5534 9.71116C19.5534 9.49584 19.4711 9.28933 19.3246 9.13707C19.1781 8.98481 18.9793 8.89927 18.7721 8.89927H14.6055ZM14.6055 15.3944C14.3983 15.3944 14.1996 15.4799 14.053 15.6322C13.9065 15.7844 13.8242 15.9909 13.8242 16.2063C13.8242 16.4216 13.9065 16.6281 14.053 16.7804C14.1996 16.9326 14.3983 17.0181 14.6055 17.0181H18.7721C18.9793 17.0181 19.1781 16.9326 19.3246 16.7804C19.4711 16.6281 19.5534 16.4216 19.5534 16.2063C19.5534 15.9909 19.4711 15.7844 19.3246 15.6322C19.1781 15.4799 18.9793 15.3944 18.7721 15.3944H14.6055ZM7.34505 15.6325C7.19695 15.4891 7.00107 15.411 6.79867 15.4148C6.59628 15.4185 6.40317 15.5037 6.26003 15.6524C6.11689 15.8012 6.0349 16.0019 6.03133 16.2122C6.02776 16.4225 6.10289 16.6261 6.24089 16.78L7.2513 17.83L6.24089 18.8801C6.16413 18.9544 6.10256 19.044 6.05986 19.1436C6.01716 19.2432 5.9942 19.3507 5.99235 19.4597C5.9905 19.5688 6.0098 19.677 6.04909 19.7781C6.08838 19.8792 6.14687 19.9711 6.22105 20.0482C6.29524 20.1252 6.38361 20.186 6.48089 20.2269C6.57817 20.2677 6.68236 20.2877 6.78726 20.2858C6.89216 20.2839 6.99561 20.26 7.09145 20.2157C7.18728 20.1713 7.27353 20.1073 7.34505 20.0275L8.35547 18.9775L9.36589 20.0275C9.43741 20.1073 9.52366 20.1713 9.61949 20.2157C9.71532 20.26 9.81878 20.2839 9.92368 20.2858C10.0286 20.2877 10.1328 20.2677 10.2301 20.2269C10.3273 20.186 10.4157 20.1252 10.4899 20.0482C10.5641 19.9711 10.6226 19.8792 10.6618 19.7781C10.7011 19.677 10.7204 19.5688 10.7186 19.4597C10.7167 19.3507 10.6938 19.2432 10.6511 19.1436C10.6084 19.044 10.5468 18.9544 10.4701 18.8801L9.45964 17.83L10.4701 16.78C10.5468 16.7057 10.6084 16.616 10.6511 16.5164C10.6938 16.4169 10.7167 16.3093 10.7186 16.2003C10.7204 16.0913 10.7011 15.983 10.6618 15.8819C10.6226 15.7808 10.5641 15.689 10.4899 15.6119C10.4157 15.5348 10.3273 15.474 10.2301 15.4332C10.1328 15.3924 10.0286 15.3723 9.92368 15.3742C9.81878 15.3762 9.71532 15.4 9.61949 15.4444C9.52366 15.4888 9.43741 15.5528 9.36589 15.6325L8.35547 16.6826L7.34505 15.6325ZM14.6055 18.6419C14.3983 18.6419 14.1996 18.7275 14.053 18.8797C13.9065 19.032 13.8242 19.2385 13.8242 19.4538C13.8242 19.6691 13.9065 19.8756 14.053 20.0279C14.1996 20.1802 14.3983 20.2657 14.6055 20.2657H18.7721C18.9793 20.2657 19.1781 20.1802 19.3246 20.0279C19.4711 19.8756 19.5534 19.6691 19.5534 19.4538C19.5534 19.2385 19.4711 19.032 19.3246 18.8797C19.1781 18.7275 18.9793 18.6419 18.7721 18.6419H14.6055Z" fill="white"/>
</g>
</svg>
