<svg width="16" height="17" viewBox="0 0 16 17" fill="none" xmlns="http://www.w3.org/2000/svg">
<g id="skill-icons:instagram" clip-path="url(#clip0_763_2738)">
<g id="Group">
<path id="Vector" d="M12.25 0.25H3.75C1.67893 0.25 0 1.92893 0 4V12.5C0 14.5711 1.67893 16.25 3.75 16.25H12.25C14.3211 16.25 16 14.5711 16 12.5V4C16 1.92893 14.3211 0.25 12.25 0.25Z" fill="url(#paint0_radial_763_2738)"/>
<path id="Vector_2" d="M12.25 0.25H3.75C1.67893 0.25 0 1.92893 0 4V12.5C0 14.5711 1.67893 16.25 3.75 16.25H12.25C14.3211 16.25 16 14.5711 16 12.5V4C16 1.92893 14.3211 0.25 12.25 0.25Z" fill="url(#paint1_radial_763_2738)"/>
<path id="Vector_3" d="M8.00056 2C6.30319 2 6.09013 2.00744 5.4235 2.03775C4.75813 2.06825 4.30394 2.17356 3.90656 2.32812C3.49544 2.48775 3.14675 2.70131 2.79938 3.04881C2.45169 3.39625 2.23813 3.74494 2.078 4.15587C1.923 4.55338 1.81756 5.00775 1.78762 5.67281C1.75781 6.3395 1.75 6.55263 1.75 8.25006C1.75 9.9475 1.7575 10.1599 1.78775 10.8265C1.81838 11.4919 1.92369 11.9461 2.07812 12.3434C2.23787 12.7546 2.45144 13.1033 2.79894 13.4506C3.14625 13.7983 3.49494 14.0124 3.90575 14.172C4.30344 14.3266 4.75769 14.4319 5.42294 14.4624C6.08962 14.4927 6.3025 14.5001 7.99981 14.5001C9.69738 14.5001 9.90975 14.4927 10.5764 14.4624C11.2417 14.4319 11.6964 14.3266 12.0941 14.172C12.5051 14.0124 12.8532 13.7983 13.2005 13.4506C13.5482 13.1033 13.7617 12.7546 13.9219 12.3436C14.0755 11.9461 14.181 11.4917 14.2122 10.8266C14.2422 10.16 14.25 9.9475 14.25 8.25006C14.25 6.55263 14.2422 6.33962 14.2122 5.67294C14.181 5.00756 14.0755 4.55344 13.9219 4.15606C13.7617 3.74494 13.5482 3.39625 13.2005 3.04881C12.8529 2.70119 12.5052 2.48762 12.0938 2.32819C11.6953 2.17356 11.2409 2.06819 10.5755 2.03775C9.90881 2.00744 9.69656 2 7.99862 2H8.00056ZM7.43988 3.12631C7.60631 3.12606 7.792 3.12631 8.00056 3.12631C9.66938 3.12631 9.86712 3.13231 10.5261 3.16225C11.1355 3.19012 11.4663 3.29194 11.6866 3.3775C11.9783 3.49075 12.1862 3.62619 12.4048 3.845C12.6236 4.06375 12.7589 4.27206 12.8725 4.56375C12.9581 4.78375 13.06 5.1145 13.0878 5.72388C13.1177 6.38275 13.1242 6.58062 13.1242 8.24862C13.1242 9.91663 13.1177 10.1146 13.0878 10.7734C13.0599 11.3827 12.9581 11.7135 12.8725 11.9336C12.7593 12.2253 12.6236 12.4329 12.4048 12.6516C12.1861 12.8703 11.9784 13.0057 11.6866 13.119C11.4665 13.2049 11.1355 13.3065 10.5261 13.3344C9.86725 13.3643 9.66938 13.3708 8.00056 13.3708C6.33169 13.3708 6.13387 13.3643 5.47506 13.3344C4.86569 13.3063 4.53494 13.2044 4.31444 13.1189C4.02281 13.0056 3.81444 12.8702 3.59569 12.6514C3.37694 12.4327 3.24156 12.2249 3.128 11.9331C3.04244 11.713 2.9405 11.3822 2.91275 10.7729C2.88281 10.114 2.87681 9.91613 2.87681 8.24706C2.87681 6.578 2.88281 6.38119 2.91275 5.72231C2.94062 5.11294 3.04244 4.78219 3.128 4.56187C3.24131 4.27019 3.37694 4.06188 3.59575 3.84313C3.81456 3.62438 4.02281 3.48894 4.3145 3.37544C4.53481 3.2895 4.86569 3.18794 5.47506 3.15994C6.05162 3.13387 6.27506 3.12606 7.43988 3.12475V3.12631ZM11.3368 4.16406C10.9228 4.16406 10.5868 4.49969 10.5868 4.91381C10.5868 5.32788 10.9228 5.66381 11.3368 5.66381C11.7509 5.66381 12.0868 5.32788 12.0868 4.91381C12.0868 4.49975 11.7509 4.16381 11.3368 4.16381V4.16406ZM8.00056 5.04038C6.22806 5.04038 4.79094 6.4775 4.79094 8.25006C4.79094 10.0226 6.22806 11.4591 8.00056 11.4591C9.77312 11.4591 11.2098 10.0226 11.2098 8.25006C11.2098 6.47756 9.773 5.04038 8.00044 5.04038H8.00056ZM8.00056 6.16669C9.15112 6.16669 10.0839 7.09938 10.0839 8.25006C10.0839 9.40063 9.15112 10.3334 8.00056 10.3334C6.85 10.3334 5.91725 9.40063 5.91725 8.25006C5.91725 7.09938 6.84994 6.16669 8.00056 6.16669Z" fill="white"/>
</g>
</g>
<defs>
<radialGradient id="paint0_radial_763_2738" cx="0" cy="0" r="1" gradientUnits="userSpaceOnUse" gradientTransform="translate(4.25 17.4823) rotate(-90) scale(15.8572 14.7484)">
<stop stop-color="#FFDD55"/>
<stop offset="0.1" stop-color="#FFDD55"/>
<stop offset="0.5" stop-color="#FF543E"/>
<stop offset="1" stop-color="#C837AB"/>
</radialGradient>
<radialGradient id="paint1_radial_763_2738" cx="0" cy="0" r="1" gradientUnits="userSpaceOnUse" gradientTransform="translate(-2.68006 1.40256) rotate(78.681) scale(7.08825 29.218)">
<stop stop-color="#3771C8"/>
<stop offset="0.128" stop-color="#3771C8"/>
<stop offset="1" stop-color="#6600FF" stop-opacity="0"/>
</radialGradient>
<clipPath id="clip0_763_2738">
<rect width="16" height="16" fill="white" transform="translate(0 0.25)"/>
</clipPath>
</defs>
</svg>
