<svg width="25" height="25" viewBox="0 0 25 25" fill="none" xmlns="http://www.w3.org/2000/svg">
<path d="M12.4983 2.00903C14.8071 2.00903 17.0214 2.9262 18.6539 4.55877C20.2865 6.19134 21.2037 8.40559 21.2037 10.7144C21.2037 14.393 18.6189 18.4019 13.5162 22.784C13.2325 23.0278 12.8707 23.1616 12.4967 23.1613C12.1226 23.161 11.7611 23.0265 11.4778 22.7822L11.1403 22.4894C6.2635 18.2215 3.79297 14.3108 3.79297 10.7144C3.79297 8.40559 4.71014 6.19134 6.34271 4.55877C7.97528 2.9262 10.1895 2.00903 12.4983 2.00903ZM12.4983 7.36618C11.6103 7.36618 10.7587 7.71893 10.1308 8.34684C9.50287 8.97476 9.15011 9.82639 9.15011 10.7144C9.15011 11.6024 9.50287 12.454 10.1308 13.0819C10.7587 13.7098 11.6103 14.0626 12.4983 14.0626C13.3863 14.0626 14.238 13.7098 14.8659 13.0819C15.4938 12.454 15.8465 11.6024 15.8465 10.7144C15.8465 9.82639 15.4938 8.97476 14.8659 8.34684C14.238 7.71893 13.3863 7.36618 12.4983 7.36618Z" fill="black"/>
</svg>
