<svg width="26" height="29" viewBox="0 0 26 29" fill="none" xmlns="http://www.w3.org/2000/svg">
<g id="emojione-monotone:money-bag" clip-path="url(#clip0_734_2556)">
<path id="Vector" d="M4.30938 24.1215C4.68519 24.1215 4.98984 23.8864 4.98984 23.5964C4.98984 23.3064 4.68519 23.0713 4.30938 23.0713C3.93356 23.0713 3.62891 23.3064 3.62891 23.5964C3.62891 23.8864 3.93356 24.1215 4.30938 24.1215Z" fill="black"/>
<path id="Vector_2" d="M24.2422 20.984L23.9867 20.8142C23.9672 20.8014 22.0152 19.4908 21.5301 17.9004L21.4219 17.5481L21.2219 17.8439C21.2156 17.8531 20.9383 18.2412 20.1621 18.6965C19.5875 14.9955 17.6328 10.577 15.0641 8.69309C15.7984 8.76028 16.5352 8.69132 17.2461 8.3987C17.6742 8.22278 17.4895 7.43333 17.0574 7.6119C16.4746 7.85192 15.8906 7.91734 15.3078 7.88375C16.7387 6.39988 17.8621 4.12567 17.8621 2.46278C17.8621 2.06319 17.8621 1.31926 17.3387 1.31926C17.1285 1.31926 16.9586 1.46778 16.7238 1.67288C16.3637 1.98716 15.8199 2.46278 15.0211 2.46278C14.7168 2.46278 14.1598 2.09943 13.7121 1.8077C13.1711 1.45541 12.8254 1.23926 12.5348 1.23926C12.0535 1.23926 11.3461 1.67951 10.7219 2.06805C10.468 2.22585 10.1207 2.44244 10.0488 2.46322C9.14414 2.46322 8.61875 1.99114 8.27031 1.67863C8.06719 1.49563 7.91992 1.36302 7.72344 1.36302C7.20859 1.36302 7.20859 2.06186 7.20859 2.87121C7.20859 4.43332 8.26016 6.49535 9.63711 7.88109C8.76953 7.95138 7.91406 8.24797 7.31289 8.90703C6.98086 9.27037 7.48398 9.84677 7.81484 9.48431C8.31445 8.9362 8.96953 8.70149 9.67031 8.65596C9.6901 8.7367 9.71471 8.81627 9.74414 8.89465C6.8082 11.282 4.72266 16.951 4.72266 20.778C4.72266 21.1555 4.74844 21.4972 4.78828 21.819C4.03125 21.4384 3.75508 21.1047 3.74961 21.0971L3.54805 20.8341L3.44883 21.1657C3.01016 22.6261 1.10312 23.8929 1.08398 23.9058L0.804688 24.0892L1.08867 24.2629C1.18828 24.3239 1.28711 24.3774 1.38672 24.4353L1.20703 24.5763L1.30195 25.9201L8.74453 27.7606L11.5664 25.7181C11.851 25.7198 12.1398 25.7207 12.4328 25.7207L15.7313 27.7606L23.1879 25.1085V23.69L22.9906 23.5561C23.0891 23.4854 23.1874 23.413 23.2855 23.3391L23.5469 23.1415L23.4895 23.1097L23.8219 23.0067L23.8781 21.5321L23.6859 21.3778C23.7883 21.3086 23.8905 21.2374 23.9926 21.1643L24.2422 20.984ZM7.91914 2.87121C7.91914 2.67495 7.92148 2.52201 7.925 2.4031C7.98477 2.45615 8.0543 2.51405 8.12852 2.57373C8.35625 3.19079 8.78711 4.07926 9.51758 4.63886C10.4051 5.31957 10.2871 4.53719 10.7605 3.82288C11.234 3.10901 11.5543 2.73506 12.3473 4.57123C12.693 5.37173 13.2691 3.13465 13.8168 2.808C13.9617 2.89729 14.1063 2.98039 14.248 3.05111C15.2301 4.8581 15.6852 4.29452 16.5574 2.79253C16.7973 2.6334 16.9941 2.46278 17.1508 2.32619C17.1516 2.36715 17.1521 2.41298 17.1523 2.46366C17.1523 3.88256 16.1277 5.91763 14.873 7.24502C14.8137 7.07471 14.7289 6.91725 14.6223 6.77957C14.1156 6.13024 13.3238 6.8503 12.9484 7.32282C12.2824 7.08059 11.1973 6.41358 10.4902 6.79549C10.3141 6.88785 10.1524 7.0119 10.0113 7.16281C8.85508 5.97023 7.91914 4.24855 7.91914 2.87121ZM14.2488 7.72197C14.0737 7.67984 13.8996 7.63268 13.7266 7.58052C13.9445 7.36791 14.1445 7.29365 14.2285 7.60969C14.2375 7.64417 14.243 7.68351 14.2488 7.72197ZM11.2801 7.99646C11.1509 7.96817 11.018 7.94386 10.8812 7.92353C10.7776 7.85005 10.6761 7.77265 10.577 7.69147C10.934 7.42051 11.5496 7.56461 12.1379 7.79048C11.8477 7.82363 11.5613 7.89524 11.2801 7.99646ZM11.4574 9.1634C11.2387 9.22529 11.0004 9.20053 10.7945 9.10771C10.8781 9.05776 10.9625 9.01444 11.0469 8.97068C11.1836 9.04538 11.3203 9.10771 11.4574 9.1634ZM4.23203 25.276C3.30033 24.9708 2.39628 24.5663 1.53203 24.068C2.06211 23.6737 3.2168 22.7203 3.68633 21.5745C4.0082 21.8605 4.75117 22.3821 6.19805 22.7826C6.17344 22.8277 6.14336 22.8758 6.11445 22.9231C4.8793 22.5571 4.17695 22.0943 4.16563 22.0864L3.99531 21.9715L3.91367 22.1779C3.80625 22.4484 3.5543 22.4891 3.41406 22.4891C3.375 22.4891 3.34883 22.486 3.34531 22.4855L3.20586 22.4626L3.15508 22.6137C3.05117 22.9223 2.62461 23.3254 2.46836 23.4549L2.20742 23.6715L2.50586 23.8098C2.6168 23.8611 2.64687 23.9084 2.64844 23.9208C2.65234 23.9513 2.60508 24.0317 2.55469 24.0781L2.32734 24.2855L2.5918 24.4238C3.13359 24.7067 3.74727 24.941 4.36094 25.1341C4.3125 25.1881 4.26953 25.2354 4.23203 25.276ZM7.38203 23.629C7.92812 23.7157 8.5332 23.7705 9.19414 23.7705H9.19453C9.33177 23.7705 9.47148 23.768 9.61367 23.763C9.62374 23.7961 9.63725 23.8277 9.65391 23.8571C9.68854 23.917 9.73555 23.9662 9.79492 24.0048L8.79805 24.9688L8.74102 24.9675C8.29688 24.9675 7.96562 25.1523 7.80664 25.4811C7.20431 25.394 6.60474 25.2839 6.00898 25.1509C6.48804 24.6689 6.94625 24.161 7.38203 23.629ZM2.94883 24.1581C2.98789 24.0746 3.01328 23.9734 2.99961 23.8629C2.9871 23.763 2.94479 23.671 2.87969 23.6021C3.05508 23.4319 3.29688 23.1693 3.42969 22.8975C3.73164 22.8926 3.98086 22.7631 4.13789 22.5342C4.40234 22.6906 4.99805 23.0067 5.87813 23.2807C5.51836 23.7913 5.03359 24.3703 4.65664 24.8009C4.06914 24.6249 3.47734 24.4128 2.94883 24.1581ZM8.51562 26.0186L8.43555 26.0191C8.09922 26.0191 6.98477 25.9881 5.5125 25.6411C5.56406 25.5916 5.61758 25.5408 5.66719 25.4922C6.86172 25.7746 7.825 25.8957 7.89727 25.905L8.04023 25.9223L8.08437 25.7653C8.18086 25.4268 8.53672 25.3768 8.74062 25.3768C8.79648 25.3768 8.83359 25.3808 8.83789 25.3812L8.91367 25.3905L10.6453 23.7161L10.1824 23.6989C10.0277 23.6927 9.9625 23.6534 9.94648 23.6264L10.0445 23.336L9.77344 23.3488C9.57578 23.3585 9.38268 23.3634 9.19414 23.3634C8.64883 23.3634 8.14258 23.3227 7.675 23.2586L7.78359 23.1136C8.72734 23.2564 9.85742 23.3444 11.2219 23.3333C10.8961 23.8505 10.0836 24.9498 8.51562 26.0186ZM12.4312 24.098V24.9047C12.2091 24.9047 11.9923 24.9038 11.7809 24.9021L11.7172 23.9942L11.1883 24.0428C11.5445 23.5663 11.6965 23.2485 11.7102 23.2197L11.8535 22.913L11.5508 22.9192C8.65312 22.9793 6.76328 22.5885 5.57031 22.1545C5.4832 21.7558 5.43281 21.3049 5.43281 20.7784C5.43281 17.1879 7.46055 11.7607 10.1527 9.56122C10.6297 10.0833 11.3531 10.3118 12.0406 9.80389C12.1914 9.69251 12.3227 9.54664 12.4457 9.39149C12.475 9.39237 12.5051 9.39989 12.5348 9.39989C12.6332 9.39989 12.7332 9.3906 12.8328 9.37646C12.959 9.43348 13.0824 9.49094 13.1969 9.54797C13.7449 9.82113 14.2129 9.6514 14.5324 9.27479C16.9984 10.9633 18.9742 15.43 19.4941 19.0404C18.3668 19.5505 16.5785 20.0482 13.834 20.1357C14.3754 19.7857 14.7816 19.1969 14.6355 18.4233C14.482 17.6056 13.8781 17.3757 13.2527 17.3382C13.2509 16.9545 13.2512 16.5707 13.2535 16.1867C13.4453 16.2826 13.6293 16.3931 13.7965 16.5112C14.0918 16.7211 14.359 16.177 14.0656 15.967C13.8113 15.7861 13.5398 15.638 13.2562 15.5254C13.2602 15.0811 13.2621 14.637 13.2621 14.1932C13.2625 13.7865 12.7285 13.7865 12.7285 14.1932C12.7283 14.5836 12.7264 14.9735 12.723 15.3628C12.4388 15.3067 12.1486 15.3012 11.8629 15.3464C11.8162 15.0539 11.76 14.7634 11.6941 14.4756C11.6059 14.084 11.0902 14.2498 11.1797 14.6427C11.2453 14.9252 11.2988 15.2063 11.343 15.4914C11.3203 15.5011 11.2957 15.506 11.2734 15.5175C10.55 15.8415 10.1086 16.6676 10.6379 17.4381C10.8844 17.797 11.2066 17.942 11.5594 17.9902C11.5785 18.5219 11.5906 19.0541 11.6043 19.5854C11.368 19.4117 11.1527 19.1889 10.9578 18.9533C10.7164 18.6651 10.3395 19.1102 10.5805 19.398C10.9082 19.7927 11.2523 20.0911 11.6254 20.2821C11.6422 20.736 11.666 21.1913 11.7051 21.643C11.7395 22.044 12.2738 22.0462 12.2391 21.643C12.2062 21.2523 12.1818 20.8607 12.166 20.4686C12.3691 20.5084 12.5824 20.5185 12.809 20.4942C12.8344 20.9124 12.8641 21.3305 12.9062 21.7487C12.9305 21.9883 13.1328 22.0824 13.282 22.0338L13.2488 22.9019C13.0137 22.9258 12.7738 22.9479 12.5238 22.9665L12.2262 22.9886L12.3848 23.2785C12.4008 23.3077 12.5809 23.6299 12.9828 24.0989H12.4312V24.098ZM22.1531 21.1886C21.6621 21.4499 21.041 21.6895 20.4082 21.8985C20.0191 21.4437 19.5215 20.8368 19.15 20.2984C19.9777 20.0146 20.441 19.722 20.65 19.5642C20.8152 19.7291 21.034 19.8148 21.293 19.8144C21.3789 19.8144 21.4551 19.8051 21.5137 19.7945C21.7012 20.0694 22.0035 20.3868 22.1926 20.5764C22.103 20.6805 22.0599 20.7948 22.0633 20.9194C22.0664 21.0255 22.1039 21.1157 22.1531 21.1886ZM19.3582 22.6411C19.4382 22.7207 19.5202 22.8017 19.6043 22.8842C18.0207 23.3594 16.8422 23.4111 16.5855 23.416C14.9457 22.284 14.0957 21.0861 13.768 20.5468C15.1402 20.5079 16.2746 20.3674 17.2207 20.1738C17.2592 20.2272 17.2981 20.2803 17.3375 20.3329C16.5771 20.467 15.8107 20.553 15.0418 20.5906L14.7266 20.6056L14.9 20.9057C14.8996 20.9062 14.8645 20.9804 14.6316 21.0317L14.2531 21.1153L16.1141 22.8201L16.2008 22.7936C16.2027 22.7932 16.3668 22.7432 16.5652 22.7432C16.8516 22.7432 17.0473 22.8418 17.1457 23.0345L17.2082 23.1565L17.3297 23.1322C18.0101 22.9919 18.6866 22.8281 19.3582 22.6411ZM13.8516 21.342L13.407 21.3146C13.3863 21.0635 13.3656 20.8125 13.35 20.5614C13.4281 20.7082 13.5883 20.984 13.8516 21.342ZM13.3016 19.7238C13.2759 19.1288 13.2604 18.5332 13.2551 17.9376C13.3197 17.9405 13.3822 17.9468 13.4426 17.9566C14.1332 18.075 14.3137 18.944 13.7746 19.4329C13.634 19.5589 13.4719 19.6513 13.3016 19.7238ZM17.3793 22.7083C17.2043 22.4639 16.9258 22.3357 16.5656 22.3357C16.4152 22.3357 16.2828 22.3587 16.1992 22.3772L15.0293 21.3045C15.1262 21.2414 15.1924 21.1609 15.2281 21.0631C15.2369 21.0386 15.2437 21.0133 15.2484 20.9875C16.1758 20.9301 16.957 20.8253 17.6176 20.6971C17.9379 21.1016 18.4086 21.6594 19.0328 22.3078C18.266 22.5143 17.6266 22.6557 17.3793 22.7083ZM12.7207 17.9535C12.7281 18.594 12.7422 19.2362 12.7723 19.8763C12.7219 19.8851 12.6723 19.8962 12.6227 19.9019C12.4547 19.9236 12.2953 19.9077 12.1438 19.8643C12.1246 19.2455 12.1121 18.6253 12.0914 18.0061C12.3016 17.995 12.5145 17.9716 12.7207 17.9535ZM12.0645 17.3943C12.0402 16.9086 11.9998 16.4241 11.9434 15.9418C12.2023 15.9011 12.4656 15.9163 12.7195 15.9865C12.7167 16.4384 12.7161 16.8903 12.7176 17.3422C12.5461 17.3528 12.3832 17.3713 12.2398 17.3859C12.1815 17.3912 12.123 17.394 12.0645 17.3943ZM11.5285 17.317C11.4953 17.3068 11.4625 17.2988 11.4285 17.286C11.2724 17.2256 11.131 17.1247 11.0156 16.9912C10.682 16.6389 11.1398 16.2932 11.4285 16.1292C11.4738 16.5226 11.5051 16.9196 11.5285 17.317ZM15.8398 25.9214C14.1441 24.941 13.2344 23.8514 12.873 23.3466C13.1328 23.3245 13.3785 23.298 13.6219 23.2701L16.4023 25.3123L22.5 23.4169C19.3555 25.5616 16.2488 25.8882 15.8398 25.9214ZM20.8758 22.4338L20.6953 22.2292C21.3891 21.9914 22.0602 21.7155 22.5605 21.4123L22.8648 21.2271L22.5562 21.0494C22.4871 21.0092 22.4195 20.9354 22.4184 20.9075C22.4191 20.8969 22.4465 20.8403 22.5648 20.7634L22.7906 20.6167L22.5898 20.4275C22.5836 20.4217 21.9574 19.8334 21.7375 19.4546L21.6648 19.3308L21.5402 19.3719C21.5391 19.3719 21.432 19.4068 21.293 19.4068C21.0781 19.4073 20.9172 19.3277 20.8141 19.1712L20.7 19.0002L20.557 19.1394C20.5496 19.1465 20.107 19.5571 18.9199 19.9452C18.8808 19.8815 18.8431 19.8167 18.807 19.7507C20.2465 19.257 20.982 18.6594 21.3008 18.3323C21.8125 19.585 23.0309 20.5941 23.5598 20.9897C22.71 21.5715 21.8109 22.0553 20.8758 22.4338Z" fill="white"/>
<path id="Vector_3" d="M17.3594 21.1822C16.9699 21.0624 16.5305 21.1442 16.3766 21.363C16.2238 21.5826 16.4168 21.8594 16.8059 21.98C17.1957 22.0998 17.6348 22.0176 17.7887 21.7984C17.9414 21.5787 17.7492 21.3028 17.3594 21.1822Z" fill="black"/>
</g>
<defs>
<clipPath id="clip0_734_2556">
<rect width="25" height="28.2895" fill="white" transform="translate(0.0234375 0.355469)"/>
</clipPath>
</defs>
</svg>
