<svg width="16" height="17" viewBox="0 0 16 17" fill="none" xmlns="http://www.w3.org/2000/svg">
<g id="devicon:facebook" clip-path="url(#clip0_763_2756)">
<path id="Vector" d="M14.583 0.853516H1.42172C0.970916 0.853516 0.605469 1.21896 0.605469 1.66977V14.831C0.605469 15.2818 0.970916 15.6473 1.42172 15.6473H14.583C15.0338 15.6473 15.3992 15.2818 15.3992 14.831V1.66977C15.3992 1.21896 15.0338 0.853516 14.583 0.853516Z" fill="#3D5A98"/>
<path id="Vector_2" d="M10.8106 15.6459V9.91712H12.7331L13.0206 7.68462H10.8106V6.25962C10.8106 5.61337 10.9906 5.17212 11.9169 5.17212H13.0994V3.17212C12.5268 3.11255 11.9513 3.08418 11.3756 3.08712C9.67313 3.08712 8.50063 4.12462 8.50063 6.03837V7.68462H6.57812V9.91712H8.50063V15.6459H10.8106Z" fill="white"/>
</g>
<defs>
<clipPath id="clip0_763_2756">
<rect width="16" height="16" fill="white" transform="translate(0 0.25)"/>
</clipPath>
</defs>
</svg>
